<?xml version="1.0" encoding="UTF-8"?>
<!DOCTYPE svg PUBLIC "-//W3C//DTD SVG 1.1//EN" "http://www.w3.org/Graphics/SVG/1.1/DTD/svg11.dtd">
<!-- Creator: CorelDRAW -->
<svg xmlns="http://www.w3.org/2000/svg" xml:space="preserve" width="116px" height="117px" version="1.1" style="shape-rendering:geometricPrecision; text-rendering:geometricPrecision; image-rendering:optimizeQuality; fill-rule:evenodd; clip-rule:evenodd"
viewBox="0 0 8.53 8.57"
 xmlns:xlink="http://www.w3.org/1999/xlink"
 xmlns:xodm="http://www.corel.com/coreldraw/odm/2003">
 <defs>
  <style type="text/css">
   <![CDATA[
    .fil2 {fill:none}
    .fil0 {fill:url(#id3)}
    .fil1 {fill:url(#id4)}
    .fil3 {fill:url(#id5)}
   ]]>
  </style>
    <clipPath id="id0">
     <path d="M7.02 4.76c0.53,0.82 -0.15,3.43 -2.37,3.79 2.17,-0.2 3.87,-2.03 3.88,-4.25l-0.01 0.02c0.02,-2.72 -3.97,-1.4 -4.62,1.25 0.6,-1.01 1.3,-1.31 1.86,-1.35 0.56,-0.05 1.12,0.11 1.26,0.54z"/>
    </clipPath>
     <clipPath id="id1">
      <path d="M7.02 4.76c0.27,0.42 0.22,1.34 -0.2,2.17l0 0.79c1.03,-0.78 1.7,-2.02 1.71,-3.42l-0.01 0.02c0.01,-1.21 -0.78,-1.62 -1.7,-1.47l0 1.61c0.09,0.08 0.16,0.18 0.2,0.3z"/>
     </clipPath>
     <clipPath id="id2">
      <path d="M7.02 4.76c0.53,0.82 -0.15,3.43 -2.37,3.79 2.17,-0.2 3.87,-2.03 3.88,-4.25l-0.01 0.02c0.02,-2.72 -3.97,-1.4 -4.62,1.25 0.6,-1.01 1.3,-1.31 1.86,-1.35 0.56,-0.05 1.12,0.11 1.26,0.54z"/>
     </clipPath>
  <linearGradient id="id3" gradientUnits="userSpaceOnUse" x1="5.63" y1="1.97" x2="1.88" y2="4.97">
   <stop offset="0" style="stop-opacity:1; stop-color:#E31E24"/>
   <stop offset="1" style="stop-opacity:1; stop-color:#EF7F1A"/>
  </linearGradient>
  <linearGradient id="id4" gradientUnits="userSpaceOnUse" x1="5.18" y1="2.76" x2="7.57" y2="7.08">
   <stop offset="0" style="stop-opacity:1; stop-color:#5CA595"/>
   <stop offset="1" style="stop-opacity:1; stop-color:#66C3D0"/>
  </linearGradient>
  <linearGradient id="id5" gradientUnits="userSpaceOnUse" x1="0.91" y1="0.49" x2="5.78" y2="9.58">
   <stop offset="0" style="stop-opacity:1; stop-color:#BA5162"/>
   <stop offset="0.25098" style="stop-opacity:1; stop-color:#4C88C6"/>
   <stop offset="0.501961" style="stop-opacity:1; stop-color:#00A0E3"/>
   <stop offset="0.701961" style="stop-opacity:1; stop-color:#7E71B1"/>
   <stop offset="1" style="stop-opacity:1; stop-color:#C24872"/>
  </linearGradient>
 </defs>
 <g id="Layer_x0020_1">
  <metadata id="CorelCorpID_0Corel-Layer"/>
  <g id="_1695918888336">
   <path class="fil0" d="M4.65 1.45c-2.93,1.95 -1.69,3.82 -1.46,4.22 -0.08,-3.39 4.37,-3.8 4.86,-3.36l0 0c-0.35,-0.68 -0.87,-1.24 -1.51,-1.65 -3.37,-1.4 -5.01,2.02 -5.02,2.62l0 0c0.5,-1.3 1.99,-2.07 3.13,-1.83z"/>
   <path class="fil1" d="M7.02 4.76c0.53,0.82 -0.15,3.43 -2.37,3.79 2.17,-0.2 3.87,-2.03 3.88,-4.25l-0.01 0.02c0.02,-2.72 -3.97,-1.4 -4.62,1.25 0.6,-1.01 1.3,-1.31 1.86,-1.35 0.56,-0.05 1.12,0.11 1.26,0.54z"/>
   <g style="clip-path:url(#id0)">
    <g>
    </g>
    <g style="clip-path:url(#id1)">
     <image x="6.82" y="1.18" width="5.44" height="7.42" xlink:href="Favicon_Images\Favicon_ImgID1.png"/>
    </g>
    <g style="clip-path:url(#id2)">
    </g>
   </g>
   <path class="fil2" d="M7.02 4.76c0.53,0.82 -0.15,3.43 -2.37,3.79 2.17,-0.2 3.87,-2.03 3.88,-4.25l-0.01 0.02c0.02,-2.72 -3.97,-1.4 -4.62,1.25 0.6,-1.01 1.3,-1.31 1.86,-1.35 0.56,-0.05 1.12,0.11 1.26,0.54z"/>
   <path class="fil3" d="M1.52 3.28c0.01,-0.6 1.65,-4.02 5.02,-2.62 -0.03,-0.02 -0.07,-0.04 -0.1,-0.06 -0.64,-0.38 -1.38,-0.6 -2.18,-0.6 -2.35,0 -4.26,1.92 -4.26,4.28 0,2.37 1.91,4.29 4.26,4.29 0.14,0 0.27,-0.01 0.39,-0.02 2.22,-0.36 2.9,-2.97 2.37,-3.79 0.04,0.15 0.03,0.34 -0.05,0.57 -0.61,1.6 -3.19,2.98 -5.11,0.57 -0.59,-0.99 -0.62,-1.89 -0.34,-2.62l0 0z"/>
  </g>
 </g>
</svg>
