<?xml version="1.0" encoding="UTF-8"?>
<!DOCTYPE svg PUBLIC "-//W3C//DTD SVG 1.1//EN" "http://www.w3.org/Graphics/SVG/1.1/DTD/svg11.dtd">
<!-- Creator: CorelDRAW -->
<svg xmlns="http://www.w3.org/2000/svg" xml:space="preserve" width="539px" height="629px" version="1.1" style="shape-rendering:geometricPrecision; text-rendering:geometricPrecision; image-rendering:optimizeQuality; fill-rule:evenodd; clip-rule:evenodd"
viewBox="0 0 48.7 56.83"
 xmlns:xlink="http://www.w3.org/1999/xlink"
 xmlns:xodm="http://www.corel.com/coreldraw/odm/2003">
 <defs>
  <style type="text/css">
   <![CDATA[
    .fil1 {fill:#1230AE}
    .fil0 {fill:#6FB64E}
   ]]>
  </style>
 </defs>
 <g id="Layer_x0020_1">
  <metadata id="CorelCorpID_0Corel-Layer"/>
  <g id="_1355036252288">
   <path class="fil0" d="M0.4 28.91l-0.4 0.7c-0.01,0.69 0.24,0.57 1.29,1.32 0.56,0.4 0.99,0.74 1.52,1.17 5.06,4.12 8.6,9.61 10.65,15.94 0.75,2.31 1.13,4.06 1.51,6.44 0.12,0.71 0.16,1.67 0.34,2.34l17.85 0.01c0.16,-0.7 0.21,-1.48 0.35,-2.17 1.49,-7.8 6.92,-18.96 13.34,-23.27 0.53,-0.36 0.42,-0.31 1.12,-0.81 0.29,-0.16 0.52,-0.27 0.73,-0.54 -0.17,-0.71 -2.7,-5.14 -3.2,-5.8 -0.69,0.08 -3.02,1.71 -3.45,2.04 -3.44,2.68 -5.56,5.08 -7.98,8.73 -2.54,3.83 -5.83,10.58 -7.34,14.94l-4.66 0.03c-0.59,-0.04 -0.48,-0.29 -0.67,-0.88 -1.52,-4.74 -3.07,-8.85 -5.79,-12.89 -2.62,-3.88 -5.41,-6.86 -9.01,-9.66 -0.58,-0.46 -3.02,-2.36 -3.69,-2.59l-2.51 4.95z"/>
   <path class="fil1" d="M24.36 44.81c0.32,-0.43 2.52,-5.57 3.5,-7.24 1.54,-2.62 2.19,-4.08 4.09,-6.64 2.62,-3.53 5.8,-6.88 9.59,-9.18 0.59,-0.35 1.4,-0.68 1.73,-1.1 -0.19,-1.23 -3.08,-4.86 -4.3,-6.36 -0.7,0.2 -3.17,2.39 -3.7,2.84 -3.29,2.83 -6.99,6.99 -9.59,10.52 -0.38,0.52 -1.07,1.32 -1.41,1.91 -0.72,1.27 -0.4,0.68 -1.13,1.75l-2.35 4.34c-0.52,0.98 -0.28,0.63 0.46,2.13 1.2,2.41 1.87,3.87 2.77,6.41l0.19 0.44c0.09,0.15 0.04,0.09 0.15,0.18z"/>
   <path class="fil1" d="M18.07 32.6l3.91 -5.97c4.02,-5.47 8.93,-11.35 14.45,-15.24 -0.23,-0.66 -4.38,-4.86 -4.65,-4.89 -0.88,0.27 -5.99,4.91 -6.8,5.7 -3.88,3.79 -8.47,8.92 -11.6,13.46 -0.95,1.37 -0.56,0.66 1.87,3.48l2.82 3.46z"/>
   <path class="fil1" d="M5.01 20.34l3.61 2.64c0.4,0.32 0.85,0.8 1.3,0.88l4.24 -5.47c4.44,-5.52 8.03,-9.01 13.24,-13.35 0.44,-0.36 1.09,-0.72 1.33,-1.2 -0.23,-0.54 -2.68,-2.28 -3.3,-2.72 -2.04,-1.46 -1.48,-1.56 -3.48,0.11 -5.35,4.45 -10.52,9.7 -14.53,15.48 -0.77,1.11 -1.79,2.46 -2.41,3.63z"/>
  </g>
 </g>
</svg>
