<?xml version="1.0" encoding="UTF-8"?>
<!DOCTYPE svg PUBLIC "-//W3C//DTD SVG 1.1//EN" "http://www.w3.org/Graphics/SVG/1.1/DTD/svg11.dtd">
<!-- Creator: CorelDRAW -->
<svg xmlns="http://www.w3.org/2000/svg" xml:space="preserve" width="1373px" height="339px" version="1.1" style="shape-rendering:geometricPrecision; text-rendering:geometricPrecision; image-rendering:optimizeQuality; fill-rule:evenodd; clip-rule:evenodd"
viewBox="0 0 315.13 77.84"
 xmlns:xlink="http://www.w3.org/1999/xlink"
 xmlns:xodm="http://www.corel.com/coreldraw/odm/2003">
 <defs>
  <style type="text/css">
   <![CDATA[
    .fil3 {fill:#1230AE}
    .fil2 {fill:#6FB64E}
    .fil1 {fill:#373435;fill-rule:nonzero}
    .fil0 {fill:#1230AE;fill-rule:nonzero}
   ]]>
  </style>
 </defs>
 <g id="Layer_x0020_1">
  <metadata id="CorelCorpID_0Corel-Layer"/>
  <g id="_1353403375296">
   <g>
    <polygon class="fil0" points="104.95,9.63 95.31,36.82 87.02,36.82 77.38,9.63 84.43,9.63 91.16,30.16 97.94,9.63 "/>
    <polygon id="_1" class="fil0" points="126.8,9.63 126.8,36.82 120.18,36.82 120.18,9.63 "/>
    <polygon id="_2" class="fil0" points="167.63,9.63 167.63,36.82 161,36.82 161,25.63 150.7,25.63 150.7,36.82 144.08,36.82 144.08,9.63 150.7,9.63 150.7,20.29 161,20.29 161,9.63 "/>
    <path id="_3" class="fil0" d="M201.79 32.02l-10.15 0 -1.62 4.8 -6.94 0 9.84 -27.19 7.67 0 9.84 27.19 -7.01 0 -1.63 -4.8zm-1.7 -5.11l-3.37 -9.96 -3.33 9.96 6.7 0z"/>
    <path id="_4" class="fil0" d="M242.81 32.02l-10.15 0 -1.62 4.8 -6.94 0 9.84 -27.19 7.67 0 9.84 27.19 -7.01 0 -1.63 -4.8zm-1.71 -5.11l-3.36 -9.96 -3.34 9.96 6.7 0z"/>
    <polygon id="_5" class="fil0" points="291.23,36.82 284.6,36.82 273.53,20.05 273.53,36.82 266.9,36.82 266.9,9.63 273.53,9.63 284.6,26.48 284.6,9.63 291.23,9.63 "/>
    <polygon id="_6" class="fil0" points="315.13,9.63 315.13,36.82 308.5,36.82 308.5,9.63 "/>
    <polygon class="fil1" points="89.48,53.03 89.48,58.64 95.6,58.64 95.6,60.45 89.48,60.45 89.48,66.23 96.32,66.23 96.32,68.04 87.28,68.04 87.28,51.22 96.32,51.22 96.32,53.03 "/>
    <polygon id="_1_0" class="fil1" points="123.88,68.04 121.69,68.04 112.87,54.67 112.87,68.04 110.68,68.04 110.68,51.22 112.87,51.22 121.69,64.57 121.69,51.22 123.88,51.22 "/>
    <polygon id="_2_1" class="fil1" points="148.99,51.24 148.99,53.03 144.41,53.03 144.41,68.04 142.22,68.04 142.22,53.03 137.61,53.03 137.61,51.24 "/>
    <polygon id="_3_2" class="fil1" points="164.91,53.03 164.91,58.64 171.03,58.64 171.03,60.45 164.91,60.45 164.91,66.23 171.75,66.23 171.75,68.04 162.72,68.04 162.72,51.22 171.75,51.22 171.75,53.03 "/>
    <path id="_4_3" class="fil1" d="M194.96 68.04l-4 -6.87 -2.66 0 0 6.87 -2.19 0 0 -16.8 5.42 0c1.27,0 2.34,0.22 3.22,0.66 0.88,0.43 1.53,1.02 1.96,1.75 0.44,0.74 0.66,1.59 0.66,2.53 0,1.16 -0.34,2.18 -1,3.06 -0.67,0.89 -1.67,1.47 -3.01,1.76l4.22 7.04 -2.62 0zm-6.66 -8.63l3.23 0c1.19,0 2.08,-0.29 2.68,-0.88 0.59,-0.58 0.89,-1.37 0.89,-2.35 0,-0.99 -0.29,-1.76 -0.88,-2.31 -0.59,-0.55 -1.48,-0.82 -2.69,-0.82l-3.23 0 0 6.36z"/>
    <path id="_5_4" class="fil1" d="M223.02 56.16c0,1.4 -0.47,2.56 -1.43,3.48 -0.96,0.93 -2.41,1.39 -4.37,1.39l-3.23 0 0 7.01 -2.2 0 0 -16.8 5.43 0c1.89,0 3.33,0.46 4.32,1.38 0.99,0.91 1.48,2.09 1.48,3.54zm-5.8 3.06c1.22,0 2.12,-0.26 2.69,-0.79 0.58,-0.53 0.87,-1.29 0.87,-2.27 0,-2.07 -1.19,-3.11 -3.56,-3.11l-3.23 0 0 6.17 3.23 0z"/>
    <path id="_6_5" class="fil1" d="M245.62 68.04l-4 -6.87 -2.65 0 0 6.87 -2.19 0 0 -16.8 5.42 0c1.27,0 2.34,0.22 3.22,0.66 0.87,0.43 1.53,1.02 1.96,1.75 0.43,0.74 0.65,1.59 0.65,2.53 0,1.16 -0.33,2.18 -1,3.06 -0.67,0.89 -1.67,1.47 -3,1.76l4.22 7.04 -2.63 0zm-6.65 -8.63l3.23 0c1.19,0 2.08,-0.29 2.67,-0.88 0.6,-0.58 0.9,-1.37 0.9,-2.35 0,-0.99 -0.3,-1.76 -0.88,-2.31 -0.59,-0.55 -1.49,-0.82 -2.69,-0.82l-3.23 0 0 6.36z"/>
    <polygon id="_7" class="fil1" points="264.65,51.24 264.65,68.04 262.46,68.04 262.46,51.24 "/>
    <path id="_8" class="fil1" d="M284.74 68.21c-1.1,0 -2.1,-0.2 -2.97,-0.59 -0.88,-0.39 -1.56,-0.94 -2.06,-1.64 -0.5,-0.7 -0.76,-1.51 -0.77,-2.42l2.33 0c0.09,0.79 0.41,1.45 0.98,1.99 0.57,0.53 1.4,0.8 2.49,0.8 1.05,0 1.87,-0.26 2.47,-0.78 0.61,-0.52 0.91,-1.19 0.91,-2.01 0,-0.64 -0.18,-1.17 -0.53,-1.57 -0.36,-0.4 -0.8,-0.7 -1.33,-0.91 -0.53,-0.21 -1.24,-0.44 -2.14,-0.68 -1.11,-0.29 -2,-0.58 -2.66,-0.87 -0.67,-0.29 -1.24,-0.74 -1.72,-1.36 -0.47,-0.62 -0.71,-1.45 -0.71,-2.49 0,-0.92 0.24,-1.73 0.7,-2.44 0.47,-0.7 1.12,-1.25 1.97,-1.63 0.84,-0.39 1.81,-0.58 2.9,-0.58 1.57,0 2.86,0.39 3.87,1.18 1,0.79 1.57,1.83 1.7,3.13l-2.41 0c-0.08,-0.64 -0.42,-1.21 -1.02,-1.7 -0.59,-0.49 -1.38,-0.73 -2.36,-0.73 -0.91,0 -1.66,0.23 -2.24,0.71 -0.58,0.47 -0.87,1.13 -0.87,1.99 0,0.61 0.18,1.1 0.52,1.49 0.35,0.39 0.77,0.68 1.28,0.88 0.51,0.2 1.22,0.43 2.13,0.69 1.11,0.3 2,0.6 2.68,0.9 0.67,0.3 1.25,0.76 1.73,1.37 0.48,0.62 0.73,1.46 0.73,2.52 0,0.82 -0.22,1.59 -0.66,2.32 -0.43,0.72 -1.07,1.31 -1.92,1.75 -0.85,0.45 -1.86,0.68 -3.02,0.68z"/>
    <polygon id="_9" class="fil1" points="306.79,53.03 306.79,58.64 312.91,58.64 312.91,60.45 306.79,60.45 306.79,66.23 313.63,66.23 313.63,68.04 304.6,68.04 304.6,51.22 313.63,51.22 313.63,53.03 "/>
   </g>
   <g>
    <path class="fil2" d="M0.54 39.59l-0.54 0.97c-0.02,0.95 0.33,0.78 1.77,1.81 0.76,0.55 1.36,1.01 2.08,1.6 6.93,5.64 11.78,13.17 14.59,21.84 1.03,3.15 1.54,5.56 2.07,8.82 0.16,0.97 0.21,2.29 0.46,3.21l24.46 0c0.22,-0.96 0.28,-2.03 0.47,-2.97 2.04,-10.68 9.48,-25.97 18.27,-31.87 0.73,-0.49 0.58,-0.43 1.54,-1.11 0.4,-0.21 0.7,-0.37 1,-0.74 -0.23,-0.97 -3.71,-7.04 -4.39,-7.95 -0.93,0.11 -4.13,2.35 -4.71,2.8 -4.73,3.67 -7.62,6.96 -10.94,11.96 -3.48,5.24 -7.99,14.48 -10.06,20.46l-6.38 0.05c-0.8,-0.07 -0.66,-0.41 -0.92,-1.22 -2.08,-6.49 -4.2,-12.12 -7.93,-17.65 -3.58,-5.31 -7.41,-9.39 -12.34,-13.23 -0.79,-0.63 -4.13,-3.24 -5.06,-3.54l-3.44 6.76z"/>
    <path class="fil3" d="M33.36 61.37c0.45,-0.57 3.46,-7.63 4.8,-9.91 2.11,-3.59 3.01,-5.58 5.61,-9.09 3.59,-4.84 7.94,-9.43 13.13,-12.57 0.81,-0.49 1.92,-0.94 2.38,-1.51 -0.26,-1.69 -4.23,-6.66 -5.89,-8.72 -0.96,0.28 -4.35,3.28 -5.07,3.9 -4.52,3.88 -9.59,9.56 -13.15,14.41 -0.52,0.71 -1.47,1.81 -1.92,2.62 -0.99,1.73 -0.56,0.92 -1.55,2.39l-3.23 5.94c-0.71,1.34 -0.38,0.86 0.64,2.92 1.65,3.31 2.56,5.3 3.8,8.78l0.25 0.6c0.13,0.21 0.06,0.13 0.2,0.24z"/>
    <path class="fil3" d="M24.75 44.66l5.35 -8.19c5.51,-7.49 12.24,-15.54 19.8,-20.86 -0.31,-0.92 -5.99,-6.67 -6.37,-6.7 -1.2,0.37 -8.2,6.72 -9.31,7.8 -5.32,5.2 -11.6,12.23 -15.9,18.43 -1.3,1.88 -0.75,0.91 2.57,4.78l3.86 4.74z"/>
    <path class="fil3" d="M6.86 27.87l4.95 3.61c0.55,0.43 1.16,1.09 1.78,1.2l5.8 -7.49c6.09,-7.56 11.01,-12.35 18.15,-18.29 0.59,-0.5 1.48,-0.98 1.81,-1.64 -0.31,-0.74 -3.67,-3.12 -4.52,-3.73 -2.79,-2 -2.03,-2.13 -4.76,0.15 -7.33,6.09 -14.41,13.29 -19.91,21.21 -1.06,1.52 -2.45,3.36 -3.3,4.98z"/>
   </g>
  </g>
 </g>
</svg>
