<?xml version="1.0" encoding="UTF-8"?>
<!DOCTYPE svg PUBLIC "-//W3C//DTD SVG 1.1//EN" "http://www.w3.org/Graphics/SVG/1.1/DTD/svg11.dtd">
<!-- Creator: CorelDRAW -->
<svg xmlns="http://www.w3.org/2000/svg" xml:space="preserve" width="1133px" height="244px" version="1.1" style="shape-rendering:geometricPrecision; text-rendering:geometricPrecision; image-rendering:optimizeQuality; fill-rule:evenodd; clip-rule:evenodd"
viewBox="0 0 1221.68 263.69"
 xmlns:xlink="http://www.w3.org/1999/xlink"
 xmlns:xodm="http://www.corel.com/coreldraw/odm/2003">
 <defs>
  <style type="text/css">
   <![CDATA[
    .fil0 {fill:#727271}
    .fil1 {fill:#FEFEFE;fill-rule:nonzero}
    .fil2 {fill:#727271;fill-rule:nonzero}
    .fil3 {fill:url(#id1)}
    .fil4 {fill:url(#id2)}
    .fil5 {fill:url(#id3)}
   ]]>
  </style>
    <clipPath id="id0">
     <path d="M209.81 87.71l0 49.64c2.87,2.44 5.02,5.43 6.14,9.03 8.58,13.19 6.99,41.27 -6.14,66.79l0 24.3c31.89,-23.93 52.58,-62.15 52.73,-105.19l-0.32 0.73c0.26,-37.18 -23.82,-49.81 -52.41,-45.3z"/>
    </clipPath>
  <linearGradient id="id1" gradientUnits="userSpaceOnUse" x1="173.3" y1="79.53" x2="57.88" y2="156.59">
   <stop offset="0" style="stop-opacity:1; stop-color:#E31E24"/>
   <stop offset="1" style="stop-opacity:1; stop-color:#EF7F1A"/>
  </linearGradient>
  <linearGradient id="id2" gradientUnits="userSpaceOnUse" x1="159.43" y1="116.23" x2="232.7" y2="225.9">
   <stop offset="0" style="stop-opacity:1; stop-color:#5CA595"/>
   <stop offset="1" style="stop-opacity:1; stop-color:#66C3D0"/>
  </linearGradient>
  <linearGradient id="id3" gradientUnits="userSpaceOnUse" x1="26.56" y1="34.9" x2="169.22" y2="292.47">
   <stop offset="0" style="stop-opacity:1; stop-color:#BA5162"/>
   <stop offset="0.25098" style="stop-opacity:1; stop-color:#4E88C6"/>
   <stop offset="0.501961" style="stop-opacity:1; stop-color:#00A0E3"/>
   <stop offset="0.701961" style="stop-opacity:1; stop-color:#7E71B1"/>
   <stop offset="1" style="stop-opacity:1; stop-color:#C24872"/>
  </linearGradient>
 </defs>
 <g id="Layer_x0020_1">
  <metadata id="CorelCorpID_0Corel-Layer"/>
  <g id="_2856537852400">
   <polygon class="fil0" points="296.92,212.79 1221.68,212.79 1221.68,259.31 296.92,259.31 "/>
   <path class="fil1" d="M322.12 223.26l6.96 0c3.27,0 5.72,1.04 7.33,3.12 1.62,2.08 2.43,5.32 2.43,9.7 0,3.73 -0.76,6.79 -2.27,9.19 -1.52,2.4 -3.6,3.6 -6.25,3.6 -0.83,0 -1.54,-0.11 -2.13,-0.33l-1.38 -3.89 0.14 -0.29c0.66,0.29 1.42,0.44 2.26,0.44 3.74,0 5.6,-2.91 5.6,-8.72 0,-2.98 -0.44,-5.17 -1.32,-6.58 -0.88,-1.4 -2.34,-2.1 -4.39,-2.1l-3.11 0 0 15.33c0,2.69 -0.2,4.67 -0.58,5.96l-3.81 0c0.35,-1.53 0.52,-3.38 0.52,-5.56l0 -19.87zm19.92 0l11.42 0 0 4.14 -7.55 0 0 6.28 6.65 0 0.16 0.29 -0.88 3.67 -5.93 0 0 5.2c0,1.13 0.44,1.71 1.32,1.71l6.68 0 0 4.14 -6.6 0c-1.89,0 -3.24,-0.54 -4.05,-1.62 -0.81,-1.08 -1.22,-2.79 -1.22,-5.14l0 -18.67zm13.25 25.43l5.16 -20.89c0.4,-1.8 0.46,-3.31 0.16,-4.54l5.6 0 5.85 25.43 -4.39 0 -1.21 -6.25 -5.88 0 -1.32 6.25 -3.97 0zm7.11 -14.97l-1.02 4.83 4.34 0 -0.91 -4.76 -1.05 -5.96 -0.22 0 -1.14 5.89zm11.9 -10.46l3.86 0 0 19.1c0,0.64 0.1,1.1 0.3,1.4 0.2,0.31 0.54,0.46 1.02,0.46l6.04 0 0.17 0.25 -0.99 4.22 -5.22 0c-1.85,0 -3.19,-0.55 -3.98,-1.66 -0.8,-1.1 -1.2,-2.8 -1.2,-5.1l0 -18.67zm14.01 0l11.42 0 0 4.14 -7.56 0 0 6.28 6.65 0 0.17 0.29 -0.88 3.67 -5.94 0 0 5.2c0,1.13 0.44,1.71 1.33,1.71l6.68 0 0 4.14 -6.6 0c-1.89,0 -3.25,-0.54 -4.06,-1.62 -0.8,-1.08 -1.21,-2.79 -1.21,-5.14l0 -18.67zm14.76 25.43l0 -25.43 6.6 0c2.31,0 4.07,0.61 5.25,1.83 1.19,1.22 1.78,3.02 1.78,5.39 0,1.6 -0.33,3.05 -0.99,4.33 -0.66,1.28 -1.58,2.31 -2.76,3.09l4.28 10.5 -0.17 0.29 -4.5 0 -3.17 -9.01 -2.46 1.16 0 7.85 -3.86 0zm3.86 -12.25l3.4 -1.52c0.73,-0.32 1.31,-0.83 1.74,-1.55 0.42,-0.71 0.63,-1.53 0.63,-2.45 0,-2.35 -1.06,-3.52 -3.17,-3.52l-2.6 0 0 9.04zm19.51 7.72c0.39,-0.49 0.88,-0.74 1.46,-0.74 0.59,0 1.07,0.25 1.44,0.74 0.37,0.5 0.55,1.2 0.55,2.09 0,0.92 -0.18,1.63 -0.55,2.13 -0.37,0.49 -0.85,0.74 -1.44,0.74 -0.58,0 -1.07,-0.25 -1.46,-0.74 -0.39,-0.5 -0.58,-1.21 -0.58,-2.13 0,-0.89 0.19,-1.59 0.58,-2.09zm0 -12.53c0.39,-0.5 0.88,-0.75 1.46,-0.75 0.59,0 1.07,0.25 1.44,0.73 0.37,0.49 0.55,1.19 0.55,2.11 0,0.92 -0.18,1.63 -0.55,2.12 -0.37,0.5 -0.85,0.75 -1.44,0.75 -0.58,0 -1.07,-0.25 -1.46,-0.75 -0.39,-0.49 -0.58,-1.2 -0.58,-2.12 0,-0.9 0.19,-1.6 0.58,-2.09zm13.33 -8.37l3.86 0 0 25.43 -3.86 0 0 -25.43zm7.67 4.54c0,-1.8 -0.24,-3.31 -0.72,-4.54l4.83 0 8.03 18.23 -0.58 -5.99 0 -12.24 3.78 0 0 25.43 -3.62 0 -8.52 -19.33 0.58 5.92 0 13.41 -3.78 0 0 -20.89zm19.06 -4.54l6.95 0c3.28,0 5.72,1.04 7.34,3.12 1.62,2.08 2.43,5.32 2.43,9.7 0,3.73 -0.76,6.79 -2.28,9.19 -1.51,2.4 -3.59,3.6 -6.24,3.6 -0.83,0 -1.54,-0.11 -2.13,-0.33l-1.38 -3.89 0.14 -0.29c0.66,0.29 1.42,0.44 2.26,0.44 3.74,0 5.6,-2.91 5.6,-8.72 0,-2.98 -0.44,-5.17 -1.32,-6.58 -0.88,-1.4 -2.35,-2.1 -4.39,-2.1l-3.12 0 0 15.33c0,2.69 -0.19,4.67 -0.58,5.96l-3.8 0c0.35,-1.53 0.52,-3.38 0.52,-5.56l0 -19.87zm19.89 16.89l0 -16.89 3.87 0 0 16.49c0,1.69 0.3,2.94 0.89,3.72 0.6,0.79 1.52,1.18 2.75,1.18 1.51,0 2.69,-0.31 3.56,-0.94l0 -20.45 3.86 0 0 23.79c-0.75,0.54 -1.79,1.01 -3.12,1.44 -1.32,0.42 -2.77,0.63 -4.33,0.63 -2.7,0 -4.62,-0.68 -5.76,-2.03 -1.15,-1.36 -1.72,-3.67 -1.72,-6.94zm29.14 -16.49l-1.13 4.28 -0.36 0c-0.53,0 -1.21,-0.13 -2.01,-0.4 -0.81,-0.26 -1.43,-0.4 -1.85,-0.4 -1.36,0 -2.04,0.69 -2.04,2.07 0,0.8 0.25,1.51 0.75,2.13 0.51,0.62 1.42,1.42 2.75,2.42 1.6,1.21 2.78,2.44 3.53,3.7 0.76,1.26 1.13,2.66 1.13,4.22 0,2.2 -0.59,3.99 -1.76,5.37 -1.18,1.38 -2.72,2.07 -4.61,2.07 -2.56,0 -4.6,-0.8 -6.13,-2.39l1.69 -3.89 0.25 0c0.44,0.53 1.04,0.99 1.82,1.38 0.77,0.39 1.48,0.58 2.12,0.58 0.85,0 1.51,-0.24 2,-0.71 0.49,-0.47 0.73,-1.14 0.73,-2.01 0,-0.8 -0.23,-1.5 -0.69,-2.08 -0.46,-0.58 -1.31,-1.32 -2.56,-2.21 -1.51,-1.09 -2.68,-2.28 -3.49,-3.58 -0.82,-1.3 -1.23,-2.85 -1.23,-4.67 0,-2.13 0.53,-3.79 1.58,-4.98 1.06,-1.18 2.47,-1.78 4.24,-1.78 0.5,0 1.23,0.12 2.19,0.35 0.97,0.23 1.68,0.34 2.14,0.34 0.35,0 0.62,-0.02 0.8,-0.07l0.14 0.26zm1.9 -0.4l14.3 0 0 4.46 -5.22 0 0 20.97 -3.86 0 0 -20.97 -5.22 0 0 -4.46zm16.42 25.43l0 -25.43 6.59 0c2.32,0 4.07,0.61 5.26,1.83 1.19,1.22 1.78,3.02 1.78,5.39 0,1.6 -0.33,3.05 -0.99,4.33 -0.67,1.28 -1.59,2.31 -2.76,3.09l4.27 10.5 -0.16 0.29 -4.5 0 -3.17 -9.01 -2.46 1.16 0 7.85 -3.86 0zm3.86 -12.25l3.4 -1.52c0.73,-0.32 1.31,-0.83 1.73,-1.55 0.43,-0.71 0.64,-1.53 0.64,-2.45 0,-2.35 -1.06,-3.52 -3.17,-3.52l-2.6 0 0 9.04zm12.8 -13.18l3.87 0 0 25.43 -3.87 0 0 -25.43zm6.13 25.43l5.16 -20.89c0.41,-1.8 0.46,-3.31 0.16,-4.54l5.61 0 5.84 25.43 -4.38 0 -1.22 -6.25 -5.87 0 -1.33 6.25 -3.97 0zm7.12 -14.97l-1.02 4.83 4.33 0 -0.91 -4.76 -1.05 -5.96 -0.22 0 -1.13 5.89zm11.89 -10.46l3.86 0 0 19.1c0,0.64 0.1,1.1 0.31,1.4 0.2,0.31 0.54,0.46 1.02,0.46l6.04 0 0.16 0.25 -0.99 4.22 -5.21 0c-1.86,0 -3.19,-0.55 -3.99,-1.66 -0.8,-1.1 -1.2,-2.8 -1.2,-5.1l0 -18.67zm20.06 0l3.86 0 0 19.1c0,0.64 0.1,1.1 0.3,1.4 0.21,0.31 0.55,0.46 1.02,0.46l6.05 0 0.16 0.25 -0.99 4.22 -5.22 0c-1.85,0 -3.18,-0.55 -3.98,-1.66 -0.8,-1.1 -1.2,-2.8 -1.2,-5.1l0 -18.67zm13.99 16.89l0 -16.89 3.86 0 0 16.49c0,1.69 0.3,2.94 0.89,3.72 0.6,0.79 1.52,1.18 2.75,1.18 1.51,0 2.7,-0.31 3.56,-0.94l0 -20.45 3.86 0 0 23.79c-0.75,0.54 -1.79,1.01 -3.12,1.44 -1.32,0.42 -2.76,0.63 -4.33,0.63 -2.7,0 -4.62,-0.68 -5.76,-2.03 -1.14,-1.36 -1.71,-3.67 -1.71,-6.94zm18.18 8.54c0.35,-1.63 0.52,-3.48 0.52,-5.56l0 -19.87 6.93 0c4.26,0 6.4,2.01 6.4,6.03 0,1.18 -0.24,2.29 -0.7,3.3 -0.47,1.02 -1.13,1.79 -1.98,2.33l0 0.14c1.09,0.41 1.95,1.2 2.58,2.34 0.64,1.16 0.96,2.52 0.96,4.09 0,2.18 -0.51,3.99 -1.52,5.42 -1.02,1.43 -2.34,2.14 -3.97,2.14 -0.96,0 -1.84,-0.16 -2.63,-0.47l-1.35 -3.89 0.17 -0.25c0.71,0.41 1.48,0.61 2.29,0.61 0.99,0 1.74,-0.32 2.24,-0.98 0.51,-0.65 0.76,-1.56 0.76,-2.72 0,-1.14 -0.22,-2.04 -0.66,-2.69 -0.44,-0.66 -1.02,-0.98 -1.74,-0.98 -0.14,0 -0.4,0.05 -0.77,0.14l-3.14 1.06 0 4.21c0,2.45 -0.18,4.31 -0.53,5.6l-3.86 0zm4.39 -21.47l0 7.62 3.17 -1.05c1.58,-0.56 2.37,-1.74 2.37,-3.56 0,-2.01 -0.87,-3.01 -2.62,-3.01l-2.92 0zm13.24 21.47l0 -25.43 6.59 0c2.32,0 4.07,0.61 5.26,1.83 1.19,1.22 1.78,3.02 1.78,5.39 0,1.6 -0.33,3.05 -0.99,4.33 -0.67,1.28 -1.59,2.31 -2.77,3.09l4.28 10.5 -0.16 0.29 -4.5 0 -3.17 -9.01 -2.46 1.16 0 7.85 -3.86 0zm3.86 -12.25l3.39 -1.52c0.74,-0.32 1.32,-0.83 1.74,-1.55 0.43,-0.71 0.64,-1.53 0.64,-2.45 0,-2.35 -1.06,-3.52 -3.18,-3.52l-2.59 0 0 9.04zm12.8 -13.18l3.87 0 0 25.43 -3.87 0 0 -25.43zm20.81 4.9c-1.35,-0.82 -2.85,-1.24 -4.5,-1.24 -3.5,0 -5.24,3.02 -5.24,9.05 0,6.01 1.74,9.01 5.24,9.01 1.49,0 2.98,-0.43 4.47,-1.31l1.24 3.82c-1.73,1.09 -3.62,1.63 -5.68,1.63 -3.06,0 -5.36,-1.19 -6.93,-3.58 -1.56,-2.38 -2.34,-5.57 -2.34,-9.57 0,-4 0.78,-7.19 2.35,-9.57 1.58,-2.39 3.88,-3.58 6.92,-3.58 2.06,0 3.95,0.54 5.68,1.63l-1.21 3.71zm2.48 20.53l5.16 -20.89c0.4,-1.8 0.46,-3.31 0.16,-4.54l5.6 0 5.85 25.43 -4.38 0 -1.22 -6.25 -5.87 0 -1.33 6.25 -3.97 0zm7.12 -14.97l-1.02 4.83 4.33 0 -0.91 -4.76 -1.05 -5.96 -0.22 0 -1.13 5.89zm11.92 -5.92c0,-1.8 -0.24,-3.31 -0.72,-4.54l4.83 0 8.03 18.23 -0.58 -5.99 0 -12.24 3.78 0 0 25.43 -3.62 0 -8.52 -19.33 0.58 5.92 0 13.41 -3.78 0 0 -20.89zm17.41 -4.54l14.29 0 0 4.46 -5.22 0 0 20.97 -3.86 0 0 -20.97 -5.21 0 0 -4.46zm26.84 0.4l-1.13 4.28 -0.36 0c-0.53,0 -1.2,-0.13 -2.01,-0.4 -0.81,-0.26 -1.43,-0.4 -1.85,-0.4 -1.36,0 -2.04,0.69 -2.04,2.07 0,0.8 0.25,1.51 0.76,2.13 0.5,0.62 1.42,1.42 2.74,2.42 1.6,1.21 2.78,2.44 3.53,3.7 0.76,1.26 1.13,2.66 1.13,4.22 0,2.2 -0.59,3.99 -1.76,5.37 -1.18,1.38 -2.72,2.07 -4.61,2.07 -2.56,0 -4.6,-0.8 -6.12,-2.39l1.68 -3.89 0.25 0c0.44,0.53 1.04,0.99 1.82,1.38 0.77,0.39 1.48,0.58 2.12,0.58 0.85,0 1.51,-0.24 2,-0.71 0.49,-0.47 0.73,-1.14 0.73,-2.01 0,-0.8 -0.23,-1.5 -0.69,-2.08 -0.46,-0.58 -1.31,-1.32 -2.56,-2.21 -1.51,-1.09 -2.67,-2.28 -3.49,-3.58 -0.82,-1.3 -1.23,-2.85 -1.23,-4.67 0,-2.13 0.53,-3.79 1.59,-4.98 1.05,-1.18 2.46,-1.78 4.23,-1.78 0.5,0 1.23,0.12 2.19,0.35 0.97,0.23 1.68,0.34 2.14,0.34 0.35,0 0.62,-0.02 0.8,-0.07l0.14 0.26zm8.09 20.59l0.22 0.26 -2.65 11.15 -2.46 -0.83 1.33 -10.58 3.56 0zm10.01 4.44l0 -25.43 11.39 0 0 4.14 -7.53 0 0 7.23 6.57 0 0.16 0.29 -0.88 3.85 -5.85 0 0 9.92 -3.86 0zm14.71 -4.53c0.38,-0.49 0.87,-0.74 1.46,-0.74 0.59,0 1.07,0.24 1.45,0.73 0.37,0.48 0.56,1.18 0.56,2.1 0,0.92 -0.19,1.63 -0.56,2.13 -0.38,0.49 -0.86,0.74 -1.45,0.74 -0.59,0 -1.08,-0.25 -1.46,-0.74 -0.39,-0.5 -0.58,-1.21 -0.58,-2.13 0,-0.89 0.19,-1.59 0.58,-2.09zm19.96 -14.87c-0.88,-1.46 -2.21,-2.18 -3.99,-2.18 -1.78,0 -3.11,0.72 -3.97,2.18 -0.87,1.45 -1.3,3.68 -1.3,6.68 0,5.91 1.76,8.87 5.27,8.87 3.53,0 5.3,-2.96 5.3,-8.87 0,-3 -0.44,-5.23 -1.31,-6.68zm-10.9 -2.91c1.57,-2.38 3.88,-3.56 6.91,-3.56 3.04,0 5.34,1.18 6.92,3.56 1.59,2.37 2.38,5.57 2.38,9.59 0,4.02 -0.79,7.22 -2.38,9.59 -1.58,2.38 -3.88,3.56 -6.92,3.56 -3.03,0 -5.34,-1.18 -6.91,-3.56 -1.57,-2.37 -2.36,-5.57 -2.36,-9.59 0,-4.02 0.79,-7.22 2.36,-9.59zm20.02 17.78c0.38,-0.49 0.87,-0.74 1.46,-0.74 0.59,0 1.07,0.24 1.45,0.73 0.37,0.48 0.56,1.18 0.56,2.1 0,0.92 -0.19,1.63 -0.56,2.13 -0.38,0.49 -0.86,0.74 -1.45,0.74 -0.59,0 -1.08,-0.25 -1.46,-0.74 -0.39,-0.5 -0.58,-1.21 -0.58,-2.13 0,-0.89 0.19,-1.59 0.58,-2.09zm11.8 0.09l0.23 0.26 -2.65 11.15 -2.46 -0.83 1.33 -10.58 3.55 0zm10.02 -20.99l3.86 0 0 19.1c0,0.64 0.1,1.1 0.31,1.4 0.2,0.31 0.54,0.46 1.02,0.46l6.04 0 0.16 0.25 -0.99 4.22 -5.21 0c-1.86,0 -3.19,-0.55 -3.99,-1.66 -0.8,-1.1 -1.2,-2.8 -1.2,-5.1l0 -18.67zm14.62 20.9c0.39,-0.49 0.88,-0.74 1.47,-0.74 0.58,0 1.07,0.24 1.44,0.73 0.38,0.48 0.57,1.18 0.57,2.1 0,0.92 -0.19,1.63 -0.57,2.13 -0.37,0.49 -0.86,0.74 -1.44,0.74 -0.59,0 -1.08,-0.25 -1.47,-0.74 -0.38,-0.5 -0.58,-1.21 -0.58,-2.13 0,-0.89 0.2,-1.59 0.58,-2.09zm7.29 -20.9l6.95 0c3.27,0 5.72,1.04 7.34,3.12 1.62,2.08 2.43,5.32 2.43,9.7 0,3.73 -0.76,6.79 -2.28,9.19 -1.52,2.4 -3.6,3.6 -6.25,3.6 -0.83,0 -1.54,-0.11 -2.12,-0.33l-1.38 -3.89 0.14 -0.29c0.66,0.29 1.41,0.44 2.26,0.44 3.73,0 5.6,-2.91 5.6,-8.72 0,-2.98 -0.44,-5.17 -1.33,-6.58 -0.88,-1.4 -2.34,-2.1 -4.38,-2.1l-3.12 0 0 15.33c0,2.69 -0.19,4.67 -0.58,5.96l-3.81 0c0.35,-1.53 0.53,-3.38 0.53,-5.56l0 -19.87zm20.52 20.9c0.39,-0.49 0.88,-0.74 1.47,-0.74 0.58,0 1.07,0.24 1.44,0.73 0.38,0.48 0.57,1.18 0.57,2.1 0,0.92 -0.19,1.63 -0.57,2.13 -0.37,0.49 -0.86,0.74 -1.44,0.74 -0.59,0 -1.08,-0.25 -1.47,-0.74 -0.38,-0.5 -0.58,-1.21 -0.58,-2.13 0,-0.89 0.2,-1.59 0.58,-2.09zm19.97 -14.87c-0.88,-1.46 -2.21,-2.18 -3.99,-2.18 -1.79,0 -3.11,0.72 -3.98,2.18 -0.86,1.45 -1.29,3.68 -1.29,6.68 0,5.91 1.75,8.87 5.27,8.87 3.53,0 5.3,-2.96 5.3,-8.87 0,-3 -0.44,-5.23 -1.31,-6.68zm-10.9 -2.91c1.57,-2.38 3.87,-3.56 6.91,-3.56 3.03,0 5.34,1.18 6.92,3.56 1.59,2.37 2.38,5.57 2.38,9.59 0,4.02 -0.79,7.22 -2.38,9.59 -1.58,2.38 -3.89,3.56 -6.92,3.56 -3.04,0 -5.34,-1.18 -6.91,-3.56 -1.58,-2.37 -2.36,-5.57 -2.36,-9.59 0,-4.02 0.78,-7.22 2.36,-9.59zm20.01 17.78c0.39,-0.49 0.88,-0.74 1.47,-0.74 0.58,0 1.07,0.24 1.44,0.73 0.38,0.48 0.57,1.18 0.57,2.1 0,0.92 -0.19,1.63 -0.57,2.13 -0.37,0.49 -0.86,0.74 -1.44,0.74 -0.59,0 -1.08,-0.25 -1.47,-0.74 -0.38,-0.5 -0.58,-1.21 -0.58,-2.13 0,-0.89 0.2,-1.59 0.58,-2.09zm11.81 0.09l0.22 0.26 -2.65 11.15 -2.45 -0.83 1.32 -10.58 3.56 0zm10.02 4.44l0 -25.43 11.39 0 0 4.14 -7.53 0 0 7.23 6.57 0 0.16 0.29 -0.88 3.85 -5.85 0 0 9.92 -3.86 0zm26.75 -19.4c-0.88,-1.46 -2.21,-2.18 -3.99,-2.18 -1.78,0 -3.11,0.72 -3.97,2.18 -0.87,1.45 -1.3,3.68 -1.3,6.68 0,5.91 1.76,8.87 5.27,8.87 3.53,0 5.3,-2.96 5.3,-8.87 0,-3 -0.44,-5.23 -1.31,-6.68zm-10.9 -2.91c1.57,-2.38 3.88,-3.56 6.91,-3.56 3.03,0 5.34,1.18 6.92,3.56 1.59,2.37 2.38,5.57 2.38,9.59 0,4.02 -0.79,7.22 -2.38,9.59 -1.58,2.38 -3.89,3.56 -6.92,3.56 -3.03,0 -5.34,-1.18 -6.91,-3.56 -1.57,-2.37 -2.36,-5.57 -2.36,-9.59 0,-4.02 0.79,-7.22 2.36,-9.59zm32.06 2.91c-0.88,-1.46 -2.21,-2.18 -3.99,-2.18 -1.78,0 -3.11,0.72 -3.97,2.18 -0.87,1.45 -1.3,3.68 -1.3,6.68 0,5.91 1.76,8.87 5.27,8.87 3.53,0 5.3,-2.96 5.3,-8.87 0,-3 -0.44,-5.23 -1.31,-6.68zm-10.9 -2.91c1.57,-2.38 3.88,-3.56 6.91,-3.56 3.04,0 5.34,1.18 6.93,3.56 1.58,2.37 2.37,5.57 2.37,9.59 0,4.02 -0.79,7.22 -2.37,9.59 -1.59,2.38 -3.89,3.56 -6.93,3.56 -3.03,0 -5.34,-1.18 -6.91,-3.56 -1.57,-2.37 -2.36,-5.57 -2.36,-9.59 0,-4.02 0.79,-7.22 2.36,-9.59zm19.38 -3.12l6.95 0c3.28,0 5.73,1.04 7.34,3.12 1.62,2.08 2.43,5.32 2.43,9.7 0,3.73 -0.76,6.79 -2.28,9.19 -1.51,2.4 -3.59,3.6 -6.24,3.6 -0.83,0 -1.54,-0.11 -2.13,-0.33l-1.38 -3.89 0.14 -0.29c0.66,0.29 1.42,0.44 2.26,0.44 3.74,0 5.6,-2.91 5.6,-8.72 0,-2.98 -0.44,-5.17 -1.32,-6.58 -0.88,-1.4 -2.35,-2.1 -4.39,-2.1l-3.12 0 0 15.33c0,2.69 -0.19,4.67 -0.57,5.96l-3.81 0c0.35,-1.53 0.52,-3.38 0.52,-5.56l0 -19.87zm42.16 11.48l0 11.59c-1.09,0.99 -2.19,1.7 -3.3,2.14 -1.11,0.44 -2.42,0.65 -3.93,0.65 -3.03,0 -5.38,-1.2 -7.05,-3.59 -1.66,-2.4 -2.5,-5.59 -2.5,-9.56 0,-3.97 0.83,-7.16 2.49,-9.55 1.65,-2.4 4.01,-3.6 7.06,-3.6 2.17,0 4.08,0.54 5.74,1.63l-1.3 3.82c-1.41,-0.9 -2.9,-1.35 -4.47,-1.35 -1.84,0 -3.21,0.79 -4.12,2.37 -0.91,1.57 -1.37,3.8 -1.37,6.68 0,2.81 0.49,5.01 1.45,6.61 0.97,1.6 2.31,2.4 4.04,2.4 1.51,0 2.68,-0.31 3.51,-0.94l0 -5.31 -4.36 0 -0.14 -0.29 1.19 -3.7 7.06 0zm3.37 13.95l0 -25.43 6.59 0c2.32,0 4.07,0.61 5.26,1.83 1.18,1.22 1.77,3.02 1.77,5.39 0,1.6 -0.33,3.05 -0.99,4.33 -0.66,1.28 -1.58,2.31 -2.76,3.09l4.28 10.5 -0.17 0.29 -4.5 0 -3.17 -9.01 -2.45 1.16 0 7.85 -3.86 0zm3.86 -12.25l3.39 -1.52c0.74,-0.32 1.32,-0.83 1.74,-1.55 0.42,-0.71 0.63,-1.53 0.63,-2.45 0,-2.35 -1.05,-3.52 -3.17,-3.52l-2.59 0 0 9.04zm11.28 12.25l5.16 -20.89c0.41,-1.8 0.46,-3.31 0.17,-4.54l5.6 0 5.85 25.43 -4.39 0 -1.21 -6.25 -5.88 0 -1.32 6.25 -3.98 0zm7.12 -14.97l-1.02 4.83 4.33 0 -0.91 -4.76 -1.05 -5.96 -0.22 0 -1.13 5.89zm11.89 -10.46l6.96 0c3.27,0 5.72,1.04 7.33,3.12 1.62,2.08 2.43,5.32 2.43,9.7 0,3.73 -0.76,6.79 -2.27,9.19 -1.52,2.4 -3.6,3.6 -6.25,3.6 -0.83,0 -1.54,-0.11 -2.13,-0.33l-1.38 -3.89 0.14 -0.29c0.66,0.29 1.42,0.44 2.26,0.44 3.74,0 5.6,-2.91 5.6,-8.72 0,-2.98 -0.44,-5.17 -1.32,-6.58 -0.88,-1.4 -2.35,-2.1 -4.39,-2.1l-3.11 0 0 15.33c0,2.69 -0.2,4.67 -0.59,5.96l-3.8 0c0.35,-1.53 0.52,-3.38 0.52,-5.56l0 -19.87zm19.92 0l11.42 0 0 4.14 -7.56 0 0 6.28 6.65 0 0.17 0.29 -0.88 3.67 -5.94 0 0 5.2c0,1.13 0.45,1.71 1.33,1.71l6.68 0 0 4.14 -6.6 0c-1.89,0 -3.25,-0.54 -4.05,-1.62 -0.81,-1.08 -1.22,-2.79 -1.22,-5.14l0 -18.67zm37.03 11.48l0 11.59c-1.09,0.99 -2.19,1.7 -3.3,2.14 -1.11,0.44 -2.42,0.65 -3.93,0.65 -3.04,0 -5.39,-1.2 -7.05,-3.59 -1.66,-2.4 -2.5,-5.59 -2.5,-9.56 0,-3.97 0.83,-7.16 2.49,-9.55 1.65,-2.4 4.01,-3.6 7.06,-3.6 2.17,0 4.08,0.54 5.74,1.63l-1.3 3.82c-1.41,-0.9 -2.91,-1.35 -4.47,-1.35 -1.84,0 -3.21,0.79 -4.12,2.37 -0.91,1.57 -1.37,3.8 -1.37,6.68 0,2.81 0.48,5.01 1.45,6.61 0.96,1.6 2.31,2.4 4.04,2.4 1.51,0 2.68,-0.31 3.5,-0.94l0 -5.31 -4.35 0 -0.14 -0.29 1.18 -3.7 7.07 0zm3.36 13.95l0 -25.43 6.6 0c2.32,0 4.07,0.61 5.25,1.83 1.19,1.22 1.78,3.02 1.78,5.39 0,1.6 -0.33,3.05 -0.99,4.33 -0.66,1.28 -1.58,2.31 -2.76,3.09l4.28 10.5 -0.17 0.29 -4.5 0 -3.17 -9.01 -2.45 1.16 0 7.85 -3.87 0zm3.87 -12.25l3.39 -1.52c0.74,-0.32 1.31,-0.83 1.74,-1.55 0.42,-0.71 0.63,-1.53 0.63,-2.45 0,-2.35 -1.06,-3.52 -3.17,-3.52l-2.59 0 0 9.04zm12.83 -13.18l11.42 0 0 4.14 -7.56 0 0 6.28 6.65 0 0.16 0.29 -0.88 3.67 -5.93 0 0 5.2c0,1.13 0.44,1.71 1.32,1.71l6.68 0 0 4.14 -6.59 0c-1.9,0 -3.25,-0.54 -4.06,-1.62 -0.81,-1.08 -1.21,-2.79 -1.21,-5.14l0 -18.67zm13.24 25.43l5.16 -20.89c0.4,-1.8 0.46,-3.31 0.16,-4.54l5.6 0 5.85 25.43 -4.38 0 -1.22 -6.25 -5.87 0 -1.33 6.25 -3.97 0zm7.12 -14.97l-1.02 4.83 4.33 0 -0.91 -4.76 -1.05 -5.96 -0.22 0 -1.13 5.89zm22.32 -10.06l-1.13 4.28 -0.36 0c-0.54,0 -1.21,-0.13 -2.02,-0.4 -0.81,-0.26 -1.42,-0.4 -1.85,-0.4 -1.36,0 -2.04,0.69 -2.04,2.07 0,0.8 0.26,1.51 0.76,2.13 0.51,0.62 1.42,1.42 2.75,2.42 1.6,1.21 2.77,2.44 3.53,3.7 0.75,1.26 1.13,2.66 1.13,4.22 0,2.2 -0.59,3.99 -1.77,5.37 -1.17,1.38 -2.71,2.07 -4.6,2.07 -2.56,0 -4.6,-0.8 -6.13,-2.39l1.69 -3.89 0.24 0c0.44,0.53 1.05,0.99 1.82,1.38 0.78,0.39 1.48,0.58 2.13,0.58 0.85,0 1.51,-0.24 2,-0.71 0.49,-0.47 0.73,-1.14 0.73,-2.01 0,-0.8 -0.23,-1.5 -0.69,-2.08 -0.46,-0.58 -1.31,-1.32 -2.57,-2.21 -1.5,-1.09 -2.67,-2.28 -3.49,-3.58 -0.81,-1.3 -1.22,-2.85 -1.22,-4.67 0,-2.13 0.53,-3.79 1.58,-4.98 1.06,-1.18 2.47,-1.78 4.24,-1.78 0.49,0 1.23,0.12 2.19,0.35 0.97,0.23 1.68,0.34 2.14,0.34 0.35,0 0.62,-0.02 0.8,-0.07l0.14 0.26zm3.58 -0.4l11.43 0 0 4.14 -7.56 0 0 6.28 6.65 0 0.16 0.29 -0.88 3.67 -5.93 0 0 5.2c0,1.13 0.44,1.71 1.32,1.71l6.68 0 0 4.14 -6.6 0c-1.89,0 -3.24,-0.54 -4.05,-1.62 -0.81,-1.08 -1.22,-2.79 -1.22,-5.14l0 -18.67z"/>
   <path class="fil2" d="M410.35 51.23l0 45.57c-7.21,3.9 -14.51,6.71 -21.91,8.42 -7.39,1.72 -16.1,2.57 -26.13,2.57 -20.17,0 -35.78,-4.71 -46.84,-14.14 -11.07,-9.42 -16.6,-21.95 -16.6,-37.56 0,-15.62 5.5,-28.14 16.51,-37.57 11,-9.43 26.64,-14.14 46.93,-14.14 14.43,0 27.14,2.14 38.14,6.43l-8.62 15c-9.41,-3.53 -19.31,-5.29 -29.7,-5.29 -12.22,0 -21.36,3.1 -27.41,9.28 -6.05,6.2 -9.08,14.96 -9.08,26.29 0,11.04 3.21,19.71 9.63,25.99 6.42,6.29 15.37,9.43 26.86,9.43 10.02,0 17.78,-1.24 23.28,-3.71l0 -20.86 -28.96 0 -0.92 -1.14 7.88 -14.57 46.94 0zm63.97 54.85l34.28 -82.13c2.69,-7.05 3.06,-13 1.11,-17.86l37.22 0 38.87 99.99 -29.16 0 -8.06 -24.57 -39.06 0 -8.8 24.57 -26.4 0zm47.3 -58.85l-6.78 19 28.79 0 -6.06 -18.71 -6.96 -23.43 -1.47 0 -7.52 23.14zm130.71 -41.14l25.67 0 0 75.14c0,2.47 0.67,4.3 2.01,5.5 1.35,1.18 3.61,1.78 6.79,1.78l40.15 0 1.1 1 -6.6 16.57 -34.65 0c-12.35,0 -21.18,-2.17 -26.5,-6.5 -5.31,-4.33 -7.97,-11.02 -7.97,-20.07l0 -73.42zm134.56 99.99l34.28 -82.13c2.69,-7.05 3.06,-13 1.1,-17.86l37.22 0 38.88 99.99 -29.16 0 -8.07 -24.57 -39.05 0 -8.8 24.57 -26.4 0zm47.3 -58.85l-6.78 19 28.78 0 -6.05 -18.71 -6.96 -23.43 -1.47 0 -7.52 23.14zm146.29 58.85l-27.5 0 39.6 -50.71 -37.22 -49.28 30.99 0 23.84 33.85 1.1 0 23.28 -33.85 27.5 0 -37.95 48.14 38.87 51.85 -31.35 0 -24.94 -36.28 -1.1 0 -25.12 36.28zm134.37 -99.99l29.71 0 24.38 41 23.66 -41 27.13 0 -39.78 60 0 39.99 -25.67 0 0 -39.99 -39.43 -60z"/>
   <path class="fil2" d="M306.38 131.32l18.8 0c7,0 12.36,1.44 16.08,4.32 3.72,2.88 5.58,7.21 5.58,12.98 0,4.81 -1.79,9.33 -5.37,13.55 -3.58,4.23 -8.2,7.27 -13.85,9.11l-7.14 -5.29 0 -0.84c4.26,-1.23 7.67,-3.28 10.24,-6.17 2.58,-2.88 3.87,-6.06 3.87,-9.53 0,-5.7 -3.19,-8.56 -9.58,-8.56l-6.88 0 0 49.2 -11.75 0 0 -58.77zm65.77 0l34.76 0 0 9.57 -23.01 0 0 14.52 20.24 0 0.5 0.68 -2.69 8.48 -18.05 0 0 12c0,2.63 1.35,3.95 4.03,3.95l20.32 0 0 9.57 -20.07 0c-5.76,0 -9.87,-1.25 -12.34,-3.74 -2.46,-2.49 -3.69,-6.45 -3.69,-11.88l0 -43.15zm56.7 0l43.49 0 0 10.33 -15.87 0 0 48.44 -11.75 0 0 -48.44 -15.87 0 0 -10.33zm66.78 58.77l0 -58.77 20.07 0c7.05,0 12.38,1.41 15.99,4.24 3.61,2.82 5.42,6.98 5.42,12.47 0,3.69 -1.01,7.02 -3.03,9.99 -2.01,2.96 -4.81,5.34 -8.39,7.13l13.01 24.27 -0.5 0.67 -13.69 0 -9.65 -20.82 -7.47 2.69 0 18.13 -11.76 0zm11.76 -28.3l10.32 -3.52c2.24,-0.73 4,-1.92 5.29,-3.57 1.29,-1.65 1.93,-3.54 1.93,-5.67 0,-5.42 -3.22,-8.14 -9.65,-8.14l-7.89 0 0 20.9zm94.35 -16.53c-2.66,-3.36 -6.7,-5.04 -12.13,-5.04 -5.43,0 -9.46,1.68 -12.09,5.04 -2.63,3.36 -3.94,8.5 -3.94,15.44 0,13.66 5.34,20.49 16.03,20.49 10.75,0 16.12,-6.83 16.12,-20.49 0,-6.94 -1.33,-12.08 -3.99,-15.44zm-33.16 -6.72c4.79,-5.49 11.8,-8.23 21.03,-8.23 9.24,0 16.26,2.74 21.07,8.23 4.82,5.48 7.23,12.87 7.23,22.16 0,9.3 -2.41,16.68 -7.23,22.17 -4.81,5.48 -11.83,8.23 -21.07,8.23 -9.23,0 -16.24,-2.75 -21.03,-8.23 -4.78,-5.49 -7.18,-12.87 -7.18,-22.17 0,-9.29 2.4,-16.68 7.18,-22.16zm115.85 4.11c-4.08,-1.9 -8.65,-2.85 -13.68,-2.85 -10.64,0 -15.95,6.97 -15.95,20.9 0,13.88 5.31,20.82 15.95,20.82 4.53,0 9.06,-1 13.6,-3.02l3.78 8.82c-5.27,2.52 -11.03,3.78 -17.3,3.78 -9.29,0 -16.31,-2.76 -21.07,-8.27 -4.76,-5.52 -7.14,-12.89 -7.14,-22.13 0,-9.23 2.39,-16.61 7.18,-22.12 4.79,-5.51 11.8,-8.27 21.03,-8.27 6.27,0 12.03,1.26 17.3,3.78l-3.7 8.56zm40.75 47.44l-11.67 0 0 -58.77 11.67 0 0 24.43 23.18 0 0 -24.43 11.75 0 0 58.77 -11.75 0 0 -24.77 -23.18 0 0 24.77zm63.26 -58.77l34.75 0 0 9.57 -23 0 0 14.52 20.23 0 0.51 0.68 -2.69 8.48 -18.05 0 0 12c0,2.63 1.34,3.95 4.03,3.95l20.32 0 0 9.57 -20.07 0c-5.76,0 -9.88,-1.25 -12.34,-3.74 -2.46,-2.49 -3.69,-6.45 -3.69,-11.88l0 -43.15zm61.74 10.49c0,-4.31 -0.73,-7.8 -2.19,-10.49l15.45 0 16.96 31.9 16.79 -31.9 12.93 0 0 58.77 -11.5 0 0 -31.9 1.18 -12.35 -16.54 31.82 -6.3 0 -16.46 -31.82 1.18 12.35 0 31.9 -11.5 0 0 -48.28zm88.18 -10.49l11.76 0 0 58.77 -11.76 0 0 -58.77zm80.13 11.33c-4.08,-1.9 -8.64,-2.85 -13.68,-2.85 -10.64,0 -15.95,6.97 -15.95,20.9 0,13.88 5.31,20.82 15.95,20.82 4.53,0 9.07,-1 13.6,-3.02l3.78 8.82c-5.26,2.52 -11.03,3.78 -17.3,3.78 -9.29,0 -16.31,-2.76 -21.07,-8.27 -4.76,-5.52 -7.14,-12.89 -7.14,-22.13 0,-9.23 2.4,-16.61 7.18,-22.12 4.79,-5.51 11.8,-8.27 21.03,-8.27 6.27,0 12.04,1.26 17.3,3.78l-3.7 8.56zm24.38 47.44l15.7 -48.28c1.23,-4.14 1.4,-7.64 0.51,-10.49l17.04 0 17.8 58.77 -13.35 0 -3.7 -14.44 -17.88 0 -4.03 14.44 -12.09 0zm21.66 -34.59l-3.1 11.16 13.18 0 -2.77 -10.99 -3.19 -13.77 -0.67 0 -3.45 13.6zm53.01 -24.18l11.76 0 0 44.16c0,1.45 0.31,2.53 0.92,3.23 0.62,0.7 1.65,1.05 3.11,1.05l18.38 0 0.51 0.59 -3.03 9.74 -15.86 0c-5.66,0 -9.7,-1.27 -12.13,-3.82 -2.44,-2.55 -3.66,-6.48 -3.66,-11.8l0 -43.15zm91.13 0.92l-3.44 9.91 -1.09 0c-1.63,0 -3.67,-0.31 -6.13,-0.92 -2.47,-0.62 -4.34,-0.93 -5.63,-0.93 -4.14,0 -6.21,1.6 -6.21,4.79 0,1.85 0.77,3.48 2.31,4.91 1.54,1.43 4.32,3.29 8.35,5.58 4.87,2.8 8.45,5.66 10.75,8.57 2.29,2.91 3.44,6.15 3.44,9.74 0,5.09 -1.79,9.23 -5.37,12.42 -3.59,3.19 -8.26,4.79 -14.02,4.79 -7.78,0 -14,-1.85 -18.64,-5.55l5.12 -8.98 0.75 0c1.35,1.23 3.2,2.3 5.55,3.19 2.35,0.9 4.5,1.35 6.46,1.35 2.57,0 4.6,-0.55 6.09,-1.64 1.48,-1.09 2.22,-2.65 2.22,-4.66 0,-1.85 -0.7,-3.44 -2.1,-4.79 -1.4,-1.34 -4,-3.05 -7.81,-5.12 -4.58,-2.52 -8.12,-5.27 -10.62,-8.27 -2.49,-2.99 -3.73,-6.59 -3.73,-10.79 0,-4.92 1.61,-8.76 4.83,-11.5 3.21,-2.74 7.51,-4.11 12.88,-4.11 1.51,0 3.74,0.26 6.68,0.8 2.94,0.53 5.11,0.79 6.5,0.79 1.07,0 1.88,-0.05 2.44,-0.16l0.42 0.58z"/>
   <path class="fil3" d="M143.19 44.61c-90.39,60.19 -51.98,117.62 -44.91,130.04 -2.68,-104.33 134.55,-117.14 149.45,-103.58l0.05 -0.03c-10.75,-20.72 -26.81,-38.22 -46.38,-50.66 -103.91,-43.23 -154.17,62.16 -154.48,80.44l0.02 0.05c15.37,-39.82 60.96,-63.57 96.25,-56.26z"/>
   <path class="fil4" d="M215.95 146.41c16.49,25.22 -4.55,105.71 -72.67,116.74 66.72,-6.08 119.04,-62.32 119.26,-130.86l-0.31 0.7c0.57,-83.69 -122.29,-43.18 -142.17,38.6 18.44,-31.13 39.99,-40.4 57.14,-41.79 17.23,-1.39 34.69,3.45 38.75,16.61z"/>
   <g style="clip-path:url(#id0)">
    <image x="209.81" y="47.73" width="53.7" height="215.44" xlink:href="Galaxy Logo_Images\Galaxy Logo_ImgID1.png"/>
   </g>
   <path class="fil5" d="M131.27 263.69l0.38 0c3.92,-0.01 7.8,-0.19 11.63,-0.54 68.12,-11.03 89.16,-91.52 72.67,-116.74 1.46,4.75 1.18,10.58 -1.49,17.59 -18.79,49.4 -98.15,91.92 -157.07,17.53 -18.17,-30.24 -19.18,-58.04 -10.45,-80.66l-0.02 -0.05c0.31,-18.28 50.57,-123.67 154.48,-80.44 -1.06,-0.68 -2.12,-1.33 -3.2,-1.98 -19.6,-11.69 -42.49,-18.4 -66.93,-18.4 -72.48,0 -131.27,59.04 -131.27,131.85 0,72.8 58.79,131.84 131.27,131.84z"/>
  </g>
 </g>
</svg>
